<?xml version="1.0" encoding="UTF-8" standalone="no"?>
<!-- Created with Inkscape (http://www.inkscape.org/) -->

<svg
   width="96.815903mm"
   height="15.339208mm"
   viewBox="0 0 96.815903 15.339208"
   version="1.1"
   id="svg1"
   xml:space="preserve"
   inkscape:version="1.3.2 (091e20e, 2023-11-25, custom)"
   sodipodi:docname="drawing.svg"
   xmlns:inkscape="http://www.inkscape.org/namespaces/inkscape"
   xmlns:sodipodi="http://sodipodi.sourceforge.net/DTD/sodipodi-0.dtd"
   xmlns="http://www.w3.org/2000/svg"
   xmlns:svg="http://www.w3.org/2000/svg"><sodipodi:namedview
     id="namedview1"
     pagecolor="#ffffff"
     bordercolor="#000000"
     borderopacity="0.25"
     inkscape:showpageshadow="2"
     inkscape:pageopacity="0.0"
     inkscape:pagecheckerboard="0"
     inkscape:deskcolor="#d1d1d1"
     inkscape:document-units="mm"
     inkscape:zoom="3.736403"
     inkscape:cx="143.98875"
     inkscape:cy="97.955172"
     inkscape:window-width="1920"
     inkscape:window-height="1009"
     inkscape:window-x="-8"
     inkscape:window-y="-8"
     inkscape:window-maximized="1"
     inkscape:current-layer="layer1" /><defs
     id="defs1" /><g
     inkscape:label="Layer 1"
     inkscape:groupmode="layer"
     id="layer1"
     transform="translate(-10.211297,-99.548187)"><path
       style="fill:#000000;stroke-width:0.512233"
       d="m 13.087804,114.78345 c -1.164633,-0.33865 -2.443148,-1.65776 -2.764905,-2.85267 -0.09234,-0.34293 -0.129524,-2.15237 -0.103489,-5.03587 0.03948,-4.37198 0.04938,-4.51698 0.346408,-5.07285 0.455765,-0.85294 1.014606,-1.42869 1.819467,-1.87455 l 0.720855,-0.399323 h 45.537484 45.537486 l 0.72085,0.399323 c 0.80486,0.44586 1.3637,1.02161 1.81947,1.87455 0.30085,0.56302 0.30577,0.64959 0.30577,5.38347 0,4.73389 -0.005,4.82046 -0.30577,5.38348 -0.45577,0.85293 -1.01461,1.42869 -1.81947,1.87455 l -0.72085,0.39932 -45.334192,0.0221 c -26.966696,0.0131 -45.506353,-0.028 -45.759114,-0.1015 z m 91.351266,-0.8607 c 0.67455,-0.33468 1.31332,-0.97345 1.64801,-1.648 0.24387,-0.49152 0.26248,-0.85091 0.26248,-5.06922 0,-4.2183 -0.0186,-4.5777 -0.26248,-5.06921 -0.33469,-0.67455 -0.97346,-1.31332 -1.64801,-1.64801 -0.52007,-0.25804 -1.29435,-0.26248 -45.795446,-0.26248 -44.501091,0 -45.275372,0.005 -45.795449,0.26248 -0.674551,0.33469 -1.313315,0.97346 -1.648005,1.64801 -0.239521,0.48274 -0.2661,0.89654 -0.303846,4.73039 -0.02672,2.71446 0.01078,4.40857 0.105977,4.78682 0.290157,1.15291 1.213652,2.12321 2.326614,2.44452 0.290152,0.0838 16.772865,0.12333 45.518003,0.10926 44.276812,-0.0217 45.072362,-0.0266 45.592152,-0.28456 z m -31.768273,-4.68429 v -3.11715 h 0.406585 c 0.280371,0 0.406585,0.0665 0.406585,0.21435 0,0.18202 0.06882,0.17181 0.45646,-0.0678 0.556126,-0.34371 1.521121,-0.37355 1.967558,-0.0609 0.446564,0.31278 0.822184,1.22229 0.825678,1.99924 0.0069,1.53764 -0.710185,2.52299 -1.836134,2.52299 -0.335461,0 -0.760256,-0.0985 -0.943983,-0.21887 l -0.334053,-0.21888 v 1.03205 1.03204 h -0.474348 -0.474348 z m 2.639976,0.48949 c 0.653726,-0.65372 0.600633,-2.32225 -0.09019,-2.83457 -0.317374,-0.23537 -0.416066,-0.24846 -0.769486,-0.10206 -0.728534,0.30176 -0.848391,0.54726 -0.803985,1.64675 0.03883,0.96149 0.05524,1.00421 0.500656,1.30381 0.580728,0.39061 0.760624,0.38845 1.163009,-0.0139 z m -59.290776,2.1488 c 0,-0.0397 0.152469,-0.37315 0.33882,-0.7409 0.186352,-0.36775 0.338821,-0.88411 0.338821,-1.14748 0,-0.45692 0.02174,-0.47886 0.474349,-0.47886 0.452156,0 0.474349,0.0223 0.474349,0.47644 0,0.66583 -0.863496,1.96307 -1.306707,1.96307 -0.175798,0 -0.319632,-0.0325 -0.319632,-0.0723 z m 14.220038,-1.54364 c -0.521499,-0.5215 -0.555378,-1.35434 -0.07465,-1.83507 0.363424,-0.36342 1.127766,-0.61299 1.880823,-0.61411 0.451559,-5.1e-4 0.508231,-0.0385 0.508231,-0.33957 0,-0.43389 -0.445654,-0.88094 -0.878191,-0.88094 -0.184843,0 -0.585245,0.0997 -0.889782,0.22155 -0.392474,0.15703 -0.595832,0.17942 -0.69838,0.0769 -0.430841,-0.43084 0.526843,-0.97606 1.714457,-0.97606 0.634441,0 0.814623,0.0598 1.190225,0.39532 l 0.442604,0.39532 0.04688,1.90866 0.04688,1.90866 H 33.10955 c -0.280763,0 -0.419581,-0.0666 -0.419581,-0.2013 0,-0.16425 -0.08107,-0.15188 -0.440467,0.0673 -0.680768,0.41507 -1.520719,0.36216 -2.009467,-0.12659 z m 1.957307,-0.56238 c 0.266529,-0.20965 0.357098,-0.40349 0.357098,-0.76428 v -0.48339 l -0.69199,0.082 c -0.380595,0.0451 -0.777015,0.15252 -0.880934,0.23876 -0.231747,0.19234 -0.247644,0.82388 -0.02631,1.04521 0.250085,0.25009 0.845987,0.19335 1.242136,-0.11826 z m 7.429228,0.68336 c -0.658124,-0.40124 -1.026576,-1.31498 -0.935456,-2.31986 0.128642,-1.41869 0.839147,-2.14892 2.089935,-2.14794 1.201764,0.001 1.938008,0.77139 1.938008,2.02806 v 0.54646 h -1.569343 -1.569343 l 0.09177,0.44047 c 0.19157,0.91943 0.945924,1.19039 2.403152,0.86323 0.482752,-0.10839 0.508231,-0.097 0.508231,0.22654 0,0.43531 -0.535187,0.63841 -1.680445,0.63771 -0.590722,-3.6e-4 -0.955238,-0.0788 -1.276514,-0.27467 z m 2.14379,-2.90973 c 0,-0.80596 -1.15785,-1.1931 -1.722666,-0.576 -0.153507,0.16772 -0.320717,0.44216 -0.371578,0.60987 -0.09058,0.29868 -0.07002,0.30495 1.000885,0.30495 1.075897,0 1.093359,-0.005 1.093359,-0.33882 z m 9.92744,2.91534 c -0.359398,-0.21914 -0.440464,-0.23151 -0.440464,-0.0673 0,0.13331 -0.137319,0.2013 -0.406584,0.2013 h -0.406586 v -3.32044 -3.32044 h 0.474349 0.474348 v 1.30852 c 0,1.30329 0.001,1.30754 0.273158,1.06132 0.164888,-0.14922 0.554338,-0.27026 0.98258,-0.30538 0.586798,-0.0481 0.776683,-0.005 1.09855,0.24895 0.532496,0.4203 0.763411,1.04417 0.759887,2.05302 -0.0036,1.06289 -0.35863,1.90308 -0.92834,2.19769 -0.560444,0.28982 -1.351101,0.26574 -1.880898,-0.0573 z m 1.405361,-0.72645 c 0.310654,-0.26721 0.379831,-0.4524 0.430455,-1.1523 0.07117,-0.98387 -0.144465,-1.61558 -0.612164,-1.7934 -0.473626,-0.18007 -0.522452,-0.16628 -1.049524,0.29649 -0.451743,0.39664 -0.479065,0.46859 -0.479065,1.26162 0,0.87381 0.10447,1.10368 0.673914,1.48284 0.445043,0.29634 0.597427,0.28233 1.036384,-0.0953 z m 3.193382,0.72084 c -0.658127,-0.40124 -1.026576,-1.31498 -0.93546,-2.31986 0.128642,-1.41869 0.83915,-2.14892 2.08994,-2.14794 1.201764,0.001 1.938007,0.77139 1.938007,2.02806 v 0.54646 h -1.569343 -1.569342 l 0.09177,0.44047 c 0.19157,0.91943 0.945925,1.19039 2.403155,0.86323 0.482749,-0.10839 0.508232,-0.097 0.508232,0.22654 0,0.43531 -0.535191,0.63841 -1.680446,0.63771 -0.590722,-3.6e-4 -0.955237,-0.0788 -1.276514,-0.27467 z m 2.143791,-2.90973 c 0,-0.80596 -1.157851,-1.1931 -1.722669,-0.576 -0.153506,0.16772 -0.320714,0.44216 -0.371579,0.60987 -0.09057,0.29868 -0.07001,0.30495 1.000887,0.30495 1.075899,0 1.093361,-0.005 1.093361,-0.33882 z m 2.913856,3.0638 c -0.741498,-0.32911 -1.151991,-1.14707 -1.151991,-2.29546 0,-1.43283 0.802407,-2.32736 2.086846,-2.32641 0.929077,5.1e-4 1.475404,0.34628 1.771019,1.12034 0.126378,0.33092 0.209631,0.77824 0.184998,0.99405 l -0.04477,0.39237 -1.524697,0.0383 -1.524691,0.0383 v 0.34481 c 0,0.20384 0.16938,0.51418 0.414325,0.75913 0.385311,0.38531 0.463596,0.40865 1.118106,0.33336 0.387084,-0.0445 0.840267,-0.1206 1.007075,-0.16907 0.39236,-0.11398 0.570105,0.27933 0.264394,0.58504 -0.247838,0.24784 -2.153692,0.38356 -2.600605,0.1852 z m 1.96516,-2.97776 c 0,-0.43382 -0.522401,-0.96698 -0.947451,-0.96698 -0.570351,0 -0.802008,0.12499 -1.022724,0.55181 -0.325217,0.6289 -0.273425,0.66795 0.885947,0.66795 0.967741,0 1.084228,-0.0271 1.084228,-0.25278 z m 27.444463,2.97776 c -0.741498,-0.32911 -1.151991,-1.14707 -1.151991,-2.29546 0,-1.43283 0.802412,-2.32736 2.086851,-2.32641 0.929077,5.1e-4 1.475399,0.34628 1.771014,1.12034 0.126383,0.33092 0.209631,0.77824 0.185003,0.99405 l -0.04477,0.39237 -1.524692,0.0383 -1.524691,0.0383 v 0.34481 c 0,0.20384 0.16938,0.51418 0.41432,0.75913 0.385311,0.38531 0.463596,0.40865 1.118106,0.33336 0.387084,-0.0445 0.840272,-0.1206 1.00708,-0.16907 0.39236,-0.11398 0.570105,0.27933 0.264389,0.58504 -0.247839,0.24784 -2.153692,0.38356 -2.600605,0.1852 z m 1.96516,-2.97776 c 0,-0.43382 -0.522396,-0.96698 -0.947451,-0.96698 -0.570351,0 -0.802003,0.12499 -1.022719,0.55181 -0.325222,0.6289 -0.27343,0.66795 0.885942,0.66795 0.967746,0 1.084228,-0.0271 1.084228,-0.25278 z m 2.468536,2.76367 c -1.067309,-0.89808 -0.859921,-3.71515 0.312841,-4.24949 0.481739,-0.2195 1.220947,-0.19861 1.697785,0.048 l 0.399854,0.20678 v -1.22324 -1.22323 h 0.474348 0.474348 v 3.32044 3.32044 H 98.1501 c -0.280376,0 -0.406585,-0.0665 -0.406585,-0.21434 0,-0.18203 -0.06882,-0.17181 -0.456461,0.0678 -0.654187,0.40431 -1.573727,0.38095 -2.089545,-0.0531 z m 1.830848,-0.6098 c 0.512391,-0.31242 0.609577,-0.61078 0.553354,-1.69881 -0.03837,-0.74236 -0.07621,-0.82622 -0.501998,-1.11246 -0.579182,-0.38936 -0.721577,-0.38727 -1.19215,0.0175 -0.355208,0.30554 -0.380261,0.39561 -0.380261,1.36703 0,0.9714 0.02505,1.06147 0.380261,1.36701 0.45999,0.39567 0.579556,0.40193 1.140794,0.0597 z m 3.752893,0.76022 c -0.0427,-0.11115 -0.0575,-0.34375 -0.0329,-0.51689 0.037,-0.26092 0.12578,-0.31479 0.51895,-0.31479 0.45175,0 0.47434,0.0226 0.47434,0.47434 0,0.43631 -0.0354,0.47776 -0.44139,0.51689 -0.29601,0.0285 -0.46695,-0.024 -0.51895,-0.15955 z M 24.96486,107.2733 v -3.32044 h 0.474348 0.474349 v 1.29735 1.29736 l 0.357098,-0.2809 c 0.239233,-0.18818 0.555304,-0.28089 0.957607,-0.28089 1.302414,0 1.584855,0.50457 1.59315,2.84609 l 0.006,1.6941 -0.440467,0.0425 -0.440467,0.0425 v -1.34692 c 0,-1.69567 -0.09347,-2.16018 -0.486489,-2.4177 -0.369805,-0.2423 -0.707173,-0.16044 -1.192503,0.28934 -0.342187,0.31713 -0.353931,0.37995 -0.353931,1.89306 v 1.56505 H 25.43921 24.964861 Z m 10.643152,3.19168 c -0.119268,-0.19298 -1.562762,-4.10133 -1.562762,-4.23127 0,-0.0618 0.20727,-0.1124 0.4606,-0.1124 0.448892,0 0.46959,0.025 0.8144,0.98258 0.194591,0.54042 0.465482,1.31709 0.60198,1.72593 l 0.248179,0.74335 0.276016,-0.74335 c 0.151809,-0.40884 0.417505,-1.18551 0.590436,-1.72593 0.30655,-0.95799 0.325626,-0.98258 0.762092,-0.98258 0.24622,0 0.447673,0.0581 0.447673,0.12907 0,0.071 -0.343074,1.07729 -0.762385,2.23622 l -0.762385,2.10714 h -0.517135 c -0.284424,0 -0.552943,-0.0579 -0.596709,-0.12876 z m 10.42345,-0.0466 c -0.03701,-0.0964 -0.05034,-1.0875 -0.02963,-2.20233 l 0.03766,-2.02698 0.440467,-0.0425 0.440466,-0.0425 v 2.2448 2.2448 h -0.410838 c -0.225961,0 -0.44112,-0.0789 -0.478132,-0.17536 z m 19.320811,-2.06085 v -2.23621 h 0.406585 c 0.322,0 0.406585,0.0589 0.406585,0.2831 0,0.27244 0.01573,0.26989 0.416983,-0.0678 0.603809,-0.50807 1.456134,-0.48971 2.054268,0.0443 l 0.442605,0.39512 0.0441,1.90885 0.0441,1.90886 H 68.682912 68.19832 v -1.6941 c 0,-1.51341 -0.02889,-1.72302 -0.271058,-1.96516 -0.347801,-0.3478 -0.533357,-0.34122 -1.098068,0.039 l -0.460508,0.31004 -0.03806,1.65512 -0.03806,1.65511 H 65.82239 65.352217 Z m 13.237634,2.13457 c -0.09067,-0.15327 -1.311152,-4.10817 -1.311152,-4.24871 0,-0.0671 0.203633,-0.12208 0.452522,-0.12208 h 0.452522 l 0.44513,1.52469 c 0.244826,0.83858 0.478333,1.58116 0.518907,1.65018 0.04057,0.069 0.187559,-0.29692 0.326635,-0.81317 0.675983,-2.5093 0.616513,-2.38244 1.095118,-2.33594 0.425168,0.0413 0.43948,0.0659 0.851505,1.46505 0.230484,0.78268 0.449965,1.51453 0.487737,1.62634 0.06964,0.20614 0.256296,-0.29908 0.788618,-2.13457 l 0.284971,-0.98258 h 0.483107 c 0.32998,0 0.462997,0.0537 0.419657,0.16941 -0.03488,0.0932 -0.357636,1.10243 -0.717188,2.24279 l -0.653726,2.07337 -0.549651,-0.0405 -0.549647,-0.0405 -0.399807,-1.3214 c -0.219897,-0.72677 -0.441945,-1.3214 -0.493444,-1.3214 -0.0515,0 -0.1656,0.28969 -0.25355,0.64376 -0.08795,0.35407 -0.251988,0.96394 -0.364526,1.35528 -0.201456,0.70052 -0.21272,0.71152 -0.729112,0.71152 -0.288474,0 -0.551556,-0.0457 -0.584626,-0.10165 z m 6.142899,-2.13457 v -2.23621 h 0.410841 c 0.245272,0 0.443179,0.0843 0.491093,0.20914 0.0711,0.18528 0.109121,0.18302 0.333192,-0.0198 0.314209,-0.28436 1.471363,-0.40916 1.860859,-0.20071 0.590937,0.31626 0.754114,0.90023 0.760568,2.72189 l 0.006,1.6941 -0.440468,0.0425 -0.440464,0.0425 v -1.34692 c 0,-1.69567 -0.09347,-2.16018 -0.486493,-2.4177 -0.369801,-0.2423 -0.707173,-0.16044 -1.192503,0.28934 -0.342187,0.31713 -0.353927,0.37995 -0.353927,1.89306 v 1.56505 H 85.20715 84.732803 Z m 16.106014,-0.0815 c -0.0252,-0.45478 -0.0154,-0.8729 0.0218,-0.92915 0.0373,-0.0562 0.29471,-0.14399 0.5721,-0.19499 0.63106,-0.11602 0.91871,-0.51179 0.91871,-1.26404 0,-1.00554 -0.71093,-1.43302 -1.76996,-1.06427 -0.788388,0.27452 -0.805077,0.27178 -0.805077,-0.13225 0,-0.4933 0.747087,-0.78565 1.811027,-0.70869 0.71761,0.0519 0.85179,0.11102 1.258,0.55427 0.402,0.43866 0.45471,0.58359 0.45471,1.2503 0,0.41477 -0.0925,0.93303 -0.20559,1.15169 -0.20654,0.39942 -0.81932,0.80873 -1.21073,0.80873 -0.16167,0 -0.21002,0.156 -0.21002,0.67764 0,0.65799 -0.0114,0.67765 -0.39455,0.67765 -0.38758,0 -0.39535,-0.0146 -0.44047,-0.82689 z m -82.243787,-0.054 c 0,-0.3363 0.009,-0.33881 1.219754,-0.33881 1.210719,0 1.219754,0.003 1.219754,0.33881 0,0.33631 -0.009,0.33882 -1.219754,0.33882 -1.210719,0 -1.219754,-0.003 -1.219754,-0.33882 z m 2.981621,0 c 0,-0.3363 0.009,-0.33881 1.219754,-0.33881 1.210719,0 1.219754,0.003 1.219754,0.33881 0,0.33631 -0.009,0.33882 -1.219754,0.33882 -1.210719,0 -1.219754,-0.003 -1.219754,-0.33882 z m -4.95843,-1.06571 c -0.04265,-0.11115 -0.05748,-0.34375 -0.03295,-0.51689 0.03697,-0.26091 0.125784,-0.31479 0.518949,-0.31479 0.451761,0 0.474349,0.0226 0.474349,0.47435 0,0.43631 -0.0354,0.47776 -0.441399,0.51689 -0.296002,0.0285 -0.466943,-0.024 -0.518948,-0.15956 z M 14.25813,105.9469 c 0,-0.25491 -0.03918,-0.83834 -0.08707,-1.29652 l -0.08707,-0.83305 h 0.498741 0.498742 l -0.03897,1.25363 -0.03897,1.25364 -0.372703,0.0429 c -0.342287,0.0394 -0.372703,0.005 -0.372703,-0.42059 z m 31.768975,-0.82548 c -0.172255,-0.44889 4.09e-4,-0.69422 0.488599,-0.69422 0.434639,0 0.472492,0.0326 0.472492,0.40659 0,0.35983 -0.05076,0.41148 -0.441398,0.44912 -0.297637,0.0287 -0.466899,-0.0239 -0.519693,-0.16149 z"
       id="path1" /></g></svg>
