<svg width="106" height="86" fill="none" version="1.1" viewBox="0 0 106 86" xmlns="http://www.w3.org/2000/svg">
 <path d="m83.4613 16.1551v69.8449h11.578c6.0547 0 10.9607-4.974 10.9607-11.0985v-72.43049c0-2.092612-2.404-3.232042-3.997-1.895402z" clip-rule="evenodd" fill="url(#c)" fill-rule="evenodd"/>
 <path d="m67.3128 29.7407-21.1524 18.9211c-3.6066 3.2211-8.9895 3.2978-12.6827 0.1862l-33.4777-28.1789v-18.1871c0-2.09261 2.40441-3.242996 3.99653-1.906357l42.00147 35.300457c4.0615 3.4183 9.9534 3.4183 14.0149 0z" clip-rule="evenodd" fill="url(#b)" fill-rule="evenodd"/>
 <path d="m83.4613 16.1661-16.1485 13.5746 0.0108-1e-4 -21.1632 18.9212c-3.6066 3.2211-8.9895 3.2978-12.6827 0.1862l-33.4777-28.1789v54.2324c0 6.1244 4.9063 11.0985 10.9607 11.0985h72.5006z" fill="url(#a)"/>
 <defs>
  <linearGradient id="c" x1="265.97501" x2="244.3" y1="141.754" y2="-73.404099" gradientUnits="userSpaceOnUse">
   <stop stop-color="#E3D9FF" offset=".271"/>
   <stop stop-color="#7341FF" offset="1"/>
  </linearGradient>
  <linearGradient id="b" x1="62.634602" x2="18.552999" y1="86.798401" y2="-87.2799" gradientUnits="userSpaceOnUse">
   <stop stop-color="#E3D9FF" offset="0"/>
   <stop stop-color="#7341FF" offset="1"/>
  </linearGradient>
  <radialGradient id="a" cx="0" cy="0" r="1" gradientTransform="matrix(123.614,0,0,125.045,105.538,10.5272)" gradientUnits="userSpaceOnUse">
   <stop stop-color="#6D4AFF" offset=".5561"/>
   <stop stop-color="#AA8EFF" offset=".9944"/>
  </radialGradient>
 </defs>
</svg>
